<svg width="37" height="38" viewBox="0 0 37 38" fill="none" xmlns="http://www.w3.org/2000/svg">
<path d="M10.4167 0C4.67292 0 0 4.67292 0 10.4167V27.0833C0 32.8271 4.67292 37.5 10.4167 37.5H27.0833C32.8271 37.5 37.5 32.8271 37.5 27.0833V10.4167C37.5 4.67292 32.8271 0 27.0833 0H10.4167ZM10.4167 4.16667H27.0833C30.5292 4.16667 33.3333 6.97083 33.3333 10.4167V27.0833C33.3333 30.5292 30.5292 33.3333 27.0833 33.3333H10.4167C6.97083 33.3333 4.16667 30.5292 4.16667 27.0833V10.4167C4.16667 6.97083 6.97083 4.16667 10.4167 4.16667ZM29.1667 6.25C28.6141 6.25 28.0842 6.46949 27.6935 6.86019C27.3028 7.2509 27.0833 7.7808 27.0833 8.33333C27.0833 8.88587 27.3028 9.41577 27.6935 9.80647C28.0842 10.1972 28.6141 10.4167 29.1667 10.4167C29.7192 10.4167 30.2491 10.1972 30.6398 9.80647C31.0305 9.41577 31.25 8.88587 31.25 8.33333C31.25 7.7808 31.0305 7.2509 30.6398 6.86019C30.2491 6.46949 29.7192 6.25 29.1667 6.25ZM18.75 8.33333C13.0062 8.33333 8.33333 13.0062 8.33333 18.75C8.33333 24.4937 13.0062 29.1667 18.75 29.1667C24.4937 29.1667 29.1667 24.4937 29.1667 18.75C29.1667 13.0062 24.4937 8.33333 18.75 8.33333ZM18.75 12.5C22.1958 12.5 25 15.3042 25 18.75C25 22.1958 22.1958 25 18.75 25C15.3042 25 12.5 22.1958 12.5 18.75C12.5 15.3042 15.3042 12.5 18.75 12.5Z" fill="white"/>
</svg>
