<svg viewBox="0 0 1728 204" fill="none" xmlns="http://www.w3.org/2000/svg">
<path fill-rule="evenodd" clip-rule="evenodd" d="M571.874 2.6748H483.764V8.16797H494.384C496.874 8.16797 498.607 8.58301 499.584 9.41309C500.609 10.2432 501.122 11.6348 501.122 13.5879V82H-11V179H794.359V195.628C794.359 196.683 794.052 197.459 793.437 197.957C792.851 198.455 791.781 198.704 790.229 198.704H784.076V202H814.135C819.262 202 823.363 201.502 826.439 200.506C830.541 199.158 834.013 197.137 836.854 194.441C839.726 191.746 841.85 188.597 843.227 184.993C843.963 183.092 844.551 181.094 844.989 179H866.078V195.188C866.078 196.331 865.727 197.21 865.023 197.825C864.32 198.411 863.104 198.704 861.376 198.704H856.938V202H910.507L911.55 179H921.933V202.791H925.097L930.062 196.727C935.014 201.062 940.844 203.23 947.553 203.23C953.793 203.23 958.876 201.312 962.802 197.474C966.757 193.606 968.734 188.743 968.734 182.884C968.734 181.515 968.609 180.221 968.36 179H986.532V194.002C986.532 195.965 986.239 197.239 985.653 197.825C985.067 198.411 983.778 198.704 981.786 198.704H976.117V202H1006.09V198.704H1000.33C998.485 198.704 997.211 198.367 996.508 197.693C995.98 197.195 995.717 195.965 995.717 194.002V179H1015.02C1015.69 181.879 1016.7 184.594 1018.04 187.146C1020.77 192.244 1024.46 196.199 1029.12 199.012C1033.8 201.824 1038.89 203.23 1044.36 203.23C1048.2 203.23 1051.63 202.337 1054.65 200.55C1057.69 198.733 1060.32 196.023 1062.51 192.42C1063.66 195.965 1064.75 199.671 1065.81 203.538H1068.71V179H1093.28V188.597C1093.28 191.38 1092.37 193.738 1090.55 195.672C1088.73 197.576 1086.27 198.587 1083.17 198.704V202H1107.95V198.704C1104.2 198.646 1101.43 197.752 1099.65 196.023C1097.86 194.266 1096.97 191.614 1096.97 188.069V179H1119.97L1137.53 202H1141.66V179H1739V82H967.016V65.8096L991.991 20.0332C994.53 15.4434 997.167 12.3184 999.901 10.6582C1002.64 8.99805 1006.37 8.16797 1011.11 8.16797V2.6748H969.799V8.16797H974.853C977.929 8.16797 980.297 8.9248 981.957 10.4385C983.617 11.9521 984.447 13.9785 984.447 16.5176C984.447 18.4219 984.008 20.1797 983.129 21.791L963.354 58.1924L935.814 15.4922C935.131 14.4668 934.789 13.3193 934.789 12.0498C934.789 10.8291 935.448 9.87695 936.767 9.19336C938.085 8.50977 940.941 8.16797 945.336 8.16797H950.609V2.6748H903.148V8.16797C907.738 8.26562 911.01 8.77832 912.963 9.70605C914.916 10.585 916.625 12.1475 918.09 14.3936L951.708 66.7617V82H895.196C895.853 79.3488 896.355 76.5399 896.703 73.5732H891.503C891.025 76.5819 890.402 79.3908 889.634 82H827.211C825.395 75.5745 824.486 68.0781 824.486 59.5107C824.486 40.1748 827.343 26.4541 833.056 18.3486C838.769 10.2432 846.166 6.19043 855.248 6.19043C863.646 6.19043 870.873 9.82812 876.928 17.1035C881.811 22.9141 885.863 31.9473 889.086 44.2031H893.993L892.089 0.624023H887.475L882.421 11.0977C877.245 7.19141 872.46 4.43262 868.065 2.82129C863.671 1.20996 859.13 0.404297 854.442 0.404297C846.044 0.404297 838.207 2.79688 830.932 7.58203C823.656 12.3184 817.675 19.4229 812.987 28.8955C808.349 38.3682 806.029 48.5 806.029 59.291C806.029 67.3705 807.451 74.9402 810.294 82H776.952V24.9404C776.952 21.5713 777.66 18.4707 779.076 15.6387C780.492 12.8066 782.152 10.8535 784.057 9.7793C785.961 8.70508 788.842 8.16797 792.699 8.16797V2.6748H754.833V8.16797C759.96 8.26562 763.817 9.68164 766.405 12.416C769.237 15.3945 770.653 19.9844 770.653 26.1855V82H766.215L705.321 2.6748H679.467V8.16797H684.374C686.62 8.16797 688.451 8.50977 689.867 9.19336C690.893 9.68164 692.626 11.2441 695.067 13.8809L696.312 15.1992V82H654.215L622.191 0.404297H617.284L584.646 82H516.723V57.5332H526.024C531.298 57.5332 535.424 59.2666 538.402 62.7334C541.381 66.2002 543.041 71.9863 543.383 80.0918H548.656V31.2393H543.383C543.139 38.3682 541.479 43.6416 538.402 47.0596C535.326 50.4775 531.2 52.1865 526.024 52.1865H516.723V13.002C516.723 11.3906 517.113 10.1943 517.895 9.41309C518.676 8.58301 519.921 8.16797 521.63 8.16797H538.988C547.582 8.16797 554.198 10.4385 558.837 14.9795C562.89 18.8857 566.039 27.2842 568.285 40.1748H573.339L571.874 2.6748ZM590.823 82L588.354 88.4414C587.035 91.957 586.376 94.7402 586.376 96.791C586.376 99.1836 587.475 101.234 589.672 102.943C591.918 104.652 595.165 105.507 599.413 105.507H603.075V111H563.817V105.507C568.017 105.507 571.337 104.604 573.778 102.797C576.22 100.941 578.466 97.4502 580.517 92.3232L584.646 82H590.823ZM590.823 82L593.407 75.2578H636.181L638.822 82H590.823ZM638.822 82H654.215L661.083 99.501C662.646 103.505 665.844 105.507 670.678 105.507H674.047V111H630.834V105.507H634.276C638.769 105.507 641.942 105.019 643.798 104.042C645.067 103.358 645.702 102.309 645.702 100.893C645.702 100.062 645.531 99.1836 645.189 98.2559L638.822 82ZM702.465 82V87.7822C702.465 93.6904 703.954 98.1094 706.933 101.039C709.911 103.92 714.525 105.409 720.775 105.507V111H679.467V105.507C684.643 105.312 688.744 103.627 691.771 100.453C694.799 97.2305 696.312 93.2998 696.312 88.6611V82H702.465ZM702.465 82V22.4502L747.928 82H702.465ZM747.928 82L770.067 111H776.952V82H770.653V87.7822L766.215 82H747.928ZM810.294 82C811.024 83.8146 811.849 85.5955 812.768 87.3428C817.309 95.8389 823.339 102.357 830.858 106.898C838.427 111.439 846.728 113.71 855.761 113.71C866.894 113.71 876.122 110.243 883.446 103.31C889.085 97.9717 893.002 90.8685 895.196 82H889.634C887.498 89.257 884.239 94.9686 879.857 99.1348C873.9 104.75 866.527 107.558 857.738 107.558C847.68 107.558 839.867 103.944 834.301 96.7178C831.205 92.6752 828.842 87.7693 827.211 82H810.294ZM951.708 82V100.087C951.708 101.796 951.122 103.139 949.95 104.115C948.778 105.043 946.874 105.507 944.237 105.507H934.423V111H984.154V105.507H974.853C972.069 105.507 969.97 104.994 968.554 103.969C967.528 103.188 967.016 101.894 967.016 100.087V82H951.708ZM1137.88 179H1141.66V150.364C1141.66 148.343 1142.08 146.482 1142.93 144.783C1143.78 143.084 1144.78 141.912 1145.92 141.268C1147.06 140.623 1148.79 140.301 1151.11 140.301V137.005H1128.39V140.301C1131.46 140.359 1133.78 141.209 1135.33 142.85C1137.03 144.637 1137.88 147.391 1137.88 151.111V179ZM1130.92 179H1137.88V188.069L1130.92 179ZM1130.92 179L1098.68 137.005H1083.17V140.301H1086.11C1087.46 140.301 1088.56 140.506 1089.41 140.916C1090.02 141.209 1091.06 142.146 1092.53 143.729L1093.28 144.52V179H1096.97V148.87L1119.97 179H1130.92ZM1060.01 179H1068.71V178.709C1068.71 177.625 1069.06 176.805 1069.76 176.248C1070.47 175.662 1071.64 175.369 1073.28 175.369H1076.97V172.293H1049.73V175.369H1055.22C1056.92 175.369 1058.13 175.633 1058.87 176.16C1059.63 176.688 1060.01 177.435 1060.01 178.401V179ZM1025.5 179H1060.01V184.51C1060.01 189.051 1058.6 192.757 1055.79 195.628C1053.01 198.499 1049.05 199.935 1043.92 199.935C1040.15 199.935 1036.85 198.938 1034.04 196.946C1031.22 194.925 1029.01 191.79 1027.4 187.542C1026.53 185.195 1025.89 182.348 1025.5 179ZM1025.5 179H1015.02C1014.34 176.096 1014 173.025 1014 169.788C1014 163.313 1015.36 157.513 1018.08 152.386C1020.81 147.259 1024.53 143.187 1029.25 140.169C1033.99 137.151 1038.78 135.643 1043.62 135.643C1046.37 135.643 1048.99 136.111 1051.48 137.049C1054 137.957 1056.84 139.642 1060.01 142.103L1063.61 135.643H1066.56L1068.18 161.57H1065.33C1063.13 154.1 1060.54 148.694 1057.55 145.354C1053.74 141.106 1049.37 138.982 1044.45 138.982C1040.67 138.982 1037.29 140.052 1034.3 142.19C1031.31 144.329 1029.01 147.537 1027.4 151.814C1025.82 156.092 1025.03 162.112 1025.03 169.876C1025.03 173.246 1025.19 176.287 1025.5 179ZM995.717 179H986.532V144.783C986.532 142.908 986.269 141.751 985.741 141.312C984.921 140.638 983.412 140.301 981.215 140.301H976.117V137.005H1006.09V140.301H1000.95C998.661 140.301 997.211 140.594 996.596 141.18C996.01 141.736 995.717 142.938 995.717 144.783V179ZM958.681 179H968.36C968.011 177.294 967.418 175.732 966.581 174.314C965.146 171.854 962.963 169.817 960.033 168.206C957.133 166.595 952.064 164.998 944.828 163.416C939.672 162.303 936.156 161.263 934.281 160.296C932.436 159.3 931.044 158.025 930.106 156.473C929.169 154.891 928.7 153.06 928.7 150.979C928.7 147.64 929.931 144.812 932.392 142.498C934.853 140.184 938.017 139.026 941.884 139.026C946.513 139.026 950.6 140.696 954.145 144.036C957.719 147.376 960.414 152.679 962.23 159.944H965.131L964.867 136.258H961.659L957.704 141.927C955.067 139.671 952.519 138.06 950.058 137.093C947.597 136.126 945.004 135.643 942.279 135.643C936.596 135.643 931.923 137.474 928.261 141.136C924.628 144.769 922.812 149.441 922.812 155.154C922.812 160.633 924.643 164.866 928.305 167.854C930.912 169.964 935.805 171.868 942.982 173.567C949.516 175.091 953.896 176.395 956.122 177.479C957.088 177.936 957.941 178.443 958.681 179ZM925.367 179H958.681C959.646 179.727 960.419 180.538 961 181.434C962.025 182.986 962.538 184.803 962.538 186.883C962.538 190.545 961.161 193.665 958.407 196.243C955.683 198.792 952.152 200.066 947.816 200.066C942.455 200.066 937.636 198.06 933.358 194.046C929.371 190.304 926.707 185.289 925.367 179ZM925.367 179H921.933V177.61H925.097C925.18 178.08 925.27 178.543 925.367 179ZM908.282 179H911.55L911.605 177.786H908.441C908.41 178.05 908.376 178.312 908.341 178.571C908.322 178.715 908.302 178.858 908.282 179ZM875.395 179H866.078V143.685C866.078 142.542 865.771 141.692 865.155 141.136C864.54 140.579 863.573 140.301 862.255 140.301H856.938V137.005H908.441L909.672 158.934H906.728C905.556 152.02 903.695 147.186 901.146 144.432C898.627 141.678 895.331 140.301 891.259 140.301H878.515C877.489 140.301 876.713 140.579 876.186 141.136C875.658 141.692 875.395 142.542 875.395 143.685V166.844H880.976C883.964 166.844 886.381 165.774 888.227 163.636C890.102 161.497 891.112 158.216 891.259 153.792H894.291V179H890.745C890.245 176.5 889.39 174.572 888.183 173.216C886.308 171.048 883.744 169.964 880.492 169.964H875.395V179ZM875.395 179V195.804C875.395 196.741 875.702 197.459 876.317 197.957C876.962 198.455 878.017 198.704 879.481 198.704H889.545C900.151 198.704 906.396 192.136 908.282 179H894.291V183.895H891.259C891.205 182.073 891.034 180.441 890.745 179H875.395ZM834.801 179H844.989C845.63 175.931 845.951 172.656 845.951 169.173C845.951 162.083 844.428 155.945 841.381 150.76C838.363 145.574 834.687 141.868 830.351 139.642C826.864 137.884 822.631 137.005 817.65 137.005H784.076V140.301H790.712C791.854 140.301 792.748 140.579 793.393 141.136C794.037 141.663 794.359 142.381 794.359 143.289V179H803.764V195.496C803.764 196.551 804.13 197.356 804.862 197.913C805.595 198.44 806.84 198.704 808.598 198.704H814.135C819.086 198.704 823.422 197.43 827.143 194.881C829.574 193.182 831.42 190.794 832.68 187.718C833.671 185.332 834.378 182.426 834.801 179ZM834.801 179C835.115 176.452 835.272 173.615 835.272 170.491C835.272 159.651 833.383 151.712 829.604 146.673C826.381 142.425 821.518 140.301 815.014 140.301H807.631C806.312 140.301 805.331 140.579 804.687 141.136C804.071 141.692 803.764 142.527 803.764 143.641V179H834.801ZM516.723 82V98.8418C516.723 101.283 517.309 103.017 518.48 104.042C519.652 105.019 521.679 105.507 524.56 105.507H535.839V111H483.764V105.507H494.896C497.143 105.507 498.729 105.067 499.657 104.188C500.634 103.261 501.122 101.771 501.122 99.7207V82H516.723ZM595.751 69.5449L615.16 21.2783L634.057 69.5449H595.751Z" fill="white"/>
</svg>
