<svg width="42" height="38" viewBox="0 0 42 38" fill="none" xmlns="http://www.w3.org/2000/svg">
<path d="M38.6841 0.0222003C37.9916 -0.0512374 37.239 0.0569009 36.4827 0.355859C35.5452 0.724609 20.8552 6.9041 7.16146 12.6687L2.63672 14.573C0.884636 15.2834 0 16.4388 0 17.995C0 19.0846 0.461133 20.5625 2.66113 21.4333L10.2987 24.4932C10.9591 26.4745 12.493 31.0747 12.8784 32.2976C13.1076 33.0226 13.6864 34.849 15.1489 35.2761C15.4489 35.3782 15.762 35.4307 16.0807 35.4307C17.0036 35.4307 17.6682 35.0012 17.9932 34.7512L22.8475 30.6456L28.7435 36.098C28.9706 36.3293 30.1725 37.4978 31.7871 37.4978C33.8017 37.4978 35.3298 35.8207 35.6486 34.1978C35.8215 33.3082 41.508 4.7625 41.508 4.76667C42.0184 2.47708 41.1007 1.28936 40.5111 0.783105C40.0059 0.350814 39.3765 0.0956379 38.6841 0.0222003ZM37.3047 4.52253C36.5193 8.46003 32.2377 29.9524 31.5877 33.0504L22.9696 25.0792L17.1224 30.0312L18.7419 23.6957C18.7419 23.6957 29.9138 12.3871 30.5868 11.7287C31.1284 11.2017 31.2419 11.0169 31.2419 10.8336C31.2419 10.5898 31.1164 10.4145 30.8268 10.4145C30.5664 10.4145 30.2127 10.664 30.0252 10.7807C27.6433 12.2657 17.5004 18.0441 12.5081 20.884L5.2653 17.991L8.78092 16.5139C17.7372 12.7431 33.688 6.02669 37.3047 4.52253Z" fill="white"/>
</svg>
